{
  "accessors": [
    {
      "bufferView": 2,
      "componentType": 5126,
      "count": 479,
      "max": [
        2.502063274383545,
        2.680431365966797,
        1.6852366924285889
      ],
      "min": [
        -2.4749388694763184,
        -1.6270631551742554,
        -2.6469268798828125
      ],
      "type": "VEC3"
    },
    {
      "bufferView": 2,
      "byteOffset": 5748,
      "componentType": 5126,
      "count": 479,
      "max": [
        0.9999802708625793,
        0.9934676289558411,
        0.999018132686615
      ],
      "min": [
        -0.9989538788795471,
        -0.9973537921905518,
        -0.9972063899040222
      ],
      "type": "VEC3"
    },
    {
      "bufferView": 0,
      "componentType": 5125,
      "count": 2493,
      "type": "SCALAR"
    },
    {
      "bufferView": 2,
      "byteOffset": 11496,
      "componentType": 5126,
      "count": 52,
      "max": [
        0.3612572252750397,
        4.877674102783203,
        0.4108348488807678
      ],
      "min": [
        -0.3625093400478363,
        4.716968536376953,
        -0.4431595802307129
      ],
      "type": "VEC3"
    },
    {
      "bufferView": 2,
      "byteOffset": 12120,
      "componentType": 5126,
      "count": 52,
      "max": [
        0.4536600410938263,
        0.9992837905883789,
        0.4318417012691498
      ],
      "min": [
        -0.3849819600582123,
        0.8396196961402893,
        -0.3530813157558441
      ],
      "type": "VEC3"
    },
    {
      "bufferView": 1,
      "componentType": 5126,
      "count": 52,
      "max": [
        0.0,
        0.0
      ],
      "min": [
        0.0,
        0.0
      ],
      "type": "VEC2"
    },
    {
      "bufferView": 0,
      "byteOffset": 9972,
      "componentType": 5125,
      "count": 159,
      "type": "SCALAR"
    },
    {
      "bufferView": 2,
      "byteOffset": 12744,
      "componentType": 5126,
      "count": 43,
      "max": [
        -3.691932201385498,
        -1.0865064859390259,
        2.639397621154785
      ],
      "min": [
        -4.067078590393066,
        -1.825549840927124,
        2.0749568939208984
      ],
      "type": "VEC3"
    },
    {
      "bufferView": 2,
      "byteOffset": 13260,
      "componentType": 5126,
      "count": 43,
      "max": [
        -0.6402053236961365,
        0.2983323037624359,
        0.756197988986969
      ],
      "min": [
        -0.9481287598609924,
        -0.2740726172924042,
        0.1551201194524765
      ],
      "type": "VEC3"
    },
    {
      "bufferView": 1,
      "byteOffset": 416,
      "componentType": 5126,
      "count": 43,
      "max": [
        0.0,
        0.0
      ],
      "min": [
        0.0,
        0.0
      ],
      "type": "VEC2"
    },
    {
      "bufferView": 0,
      "byteOffset": 10608,
      "componentType": 5125,
      "count": 129,
      "type": "SCALAR"
    },
    {
      "bufferView": 2,
      "byteOffset": 13776,
      "componentType": 5126,
      "count": 261,
      "max": [
        4.146973133087158,
        -0.12306943535804749,
        2.910939931869507
      ],
      "min": [
        1.840307593345642,
        -2.4248645305633545,
        0.6077648401260376
      ],
      "type": "VEC3"
    },
    {
      "bufferView": 2,
      "byteOffset": 16908,
      "componentType": 5126,
      "count": 261,
      "max": [
        0.995296835899353,
        0.9942217469215393,
        0.9928547739982605
      ],
      "min": [
        -0.998464822769165,
        -0.9956981539726257,
        -0.9987396001815796
      ],
      "type": "VEC3"
    },
    {
      "bufferView": 0,
      "byteOffset": 11124,
      "componentType": 5125,
      "count": 1512,
      "type": "SCALAR"
    },
    {
      "bufferView": 2,
      "byteOffset": 20040,
      "componentType": 5126,
      "count": 49,
      "max": [
        0.3240422010421753,
        -1.6607270240783691,
        -4.260515213012695
      ],
      "min": [
        -0.27169689536094666,
        -2.3437838554382324,
        -4.529443740844727
      ],
      "type": "VEC3"
    },
    {
      "bufferView": 2,
      "byteOffset": 20628,
      "componentType": 5126,
      "count": 49,
      "max": [
        0.3869866728782654,
        0.06901814043521881,
        -0.7438946962356567
      ],
      "min": [
        -0.28158527612686157,
        -0.6162630319595337,
        -0.994601845741272
      ],
      "type": "VEC3"
    },
    {
      "bufferView": 1,
      "byteOffset": 760,
      "componentType": 5126,
      "count": 49,
      "max": [
        0.0,
        0.0
      ],
      "min": [
        0.0,
        0.0
      ],
      "type": "VEC2"
    },
    {
      "bufferView": 0,
      "byteOffset": 17172,
      "componentType": 5125,
      "count": 153,
      "type": "SCALAR"
    },
    {
      "bufferView": 2,
      "byteOffset": 21216,
      "componentType": 5126,
      "count": 137,
      "max": [
        0.38692712783813477,
        -1.0051460266113281,
        0.464799165725708
      ],
      "min": [
        -0.383170485496521,
        -1.1240041255950928,
        -0.41173475980758667
      ],
      "type": "VEC3"
    },
    {
      "bufferView": 2,
      "byteOffset": 22860,
      "componentType": 5126,
      "count": 137,
      "max": [
        0.4313758611679077,
        -0.8411404490470886,
        0.5147523880004883
      ],
      "min": [
        -0.4235355854034424,
        -0.9795475006103516,
        -0.4138619005680084
      ],
      "type": "VEC3"
    },
    {
      "bufferView": 1,
      "byteOffset": 1152,
      "componentType": 5126,
      "count": 137,
      "max": [
        0.0,
        0.0
      ],
      "min": [
        0.0,
        0.0
      ],
      "type": "VEC2"
    },
    {
      "bufferView": 0,
      "byteOffset": 17784,
      "componentType": 5125,
      "count": 420,
      "type": "SCALAR"
    },
    {
      "bufferView": 2,
      "byteOffset": 24504,
      "componentType": 5126,
      "count": 46,
      "max": [
        4.099714279174805,
        -1.0555483102798462,
        2.5901107788085938
      ],
      "min": [
        3.7058072090148926,
        -1.7696492671966553,
        2.0007641315460205
      ],
      "type": "VEC3"
    },
    {
      "bufferView": 2,
      "byteOffset": 25056,
      "componentType": 5126,
      "count": 46,
      "max": [
        0.9762179255485535,
        0.22061564028263092,
        0.7194088101387024
      ],
      "min": [
        0.6734877228736877,
        -0.4444623589515686,
        0.20954257249832153
      ],
      "type": "VEC3"
    },
    {
      "bufferView": 1,
      "byteOffset": 2248,
      "componentType": 5126,
      "count": 46,
      "max": [
        0.0,
        0.0
      ],
      "min": [
        0.0,
        0.0
      ],
      "type": "VEC2"
    },
    {
      "bufferView": 0,
      "byteOffset": 19464,
      "componentType": 5125,
      "count": 141,
      "type": "SCALAR"
    },
    {
      "bufferView": 2,
      "byteOffset": 25608,
      "componentType": 5126,
      "count": 266,
      "max": [
        -1.817607045173645,
        -0.33353033661842346,
        2.948686122894287
      ],
      "min": [
        -4.1145853996276855,
        -2.634040594100952,
        0.6464964151382446
      ],
      "type": "VEC3"
    },
    {
      "bufferView": 2,
      "byteOffset": 28800,
      "componentType": 5126,
      "count": 266,
      "max": [
        0.9942203164100647,
        0.9954580068588257,
        0.9930614829063416
      ],
      "min": [
        -0.9956498742103577,
        -0.9963805079460144,
        -0.9984032511711121
      ],
      "type": "VEC3"
    },
    {
      "bufferView": 0,
      "byteOffset": 20028,
      "componentType": 5125,
      "count": 1539,
      "type": "SCALAR"
    },
    {
      "bufferView": 2,
      "byteOffset": 31992,
      "componentType": 5126,
      "count": 262,
      "max": [
        1.1421862840652466,
        -0.5081192851066589,
        -2.228710174560547
      ],
      "min": [
        -1.162231206893921,
        -2.8076322078704834,
        -4.543359279632568
      ],
      "type": "VEC3"
    },
    {
      "bufferView": 2,
      "byteOffset": 35136,
      "componentType": 5126,
      "count": 262,
      "max": [
        0.99662846326828,
        0.989552915096283,
        0.9896973967552185
      ],
      "min": [
        -0.9972062706947327,
        -0.9995492696762085,
        -0.9938669800758362
      ],
      "type": "VEC3"
    },
    {
      "bufferView": 0,
      "byteOffset": 26184,
      "componentType": 5125,
      "count": 1515,
      "type": "SCALAR"
    },
    {
      "bufferView": 2,
      "byteOffset": 38280,
      "componentType": 5126,
      "count": 260,
      "max": [
        1.1464132070541382,
        4.879242420196533,
        1.1189407110214233
      ],
      "min": [
        -1.1438392400741577,
        2.666250467300415,
        -1.177956223487854
      ],
      "type": "VEC3"
    },
    {
      "bufferView": 2,
      "byteOffset": 41400,
      "componentType": 5126,
      "count": 260,
      "max": [
        0.9904062151908875,
        0.9948949813842773,
        0.9965937733650208
      ],
      "min": [
        -0.9925307631492615,
        -0.9274733662605286,
        -0.9909908771514893
      ],
      "type": "VEC3"
    },
    {
      "bufferView": 0,
      "byteOffset": 32244,
      "componentType": 5125,
      "count": 1509,
      "type": "SCALAR"
    },
    {
      "bufferView": 2,
      "byteOffset": 44520,
      "componentType": 5126,
      "count": 261,
      "max": [
        1.1423580646514893,
        1.0737732648849487,
        1.1559280157089233
      ],
      "min": [
        -1.1453921794891357,
        -1.1508198976516724,
        -1.165526032447815
      ],
      "type": "VEC3"
    },
    {
      "bufferView": 2,
      "byteOffset": 47652,
      "componentType": 5126,
      "count": 261,
      "max": [
        0.9990610480308533,
        0.894715428352356,
        0.9995980858802795
      ],
      "min": [
        -0.9959612488746643,
        -0.9944748282432556,
        -0.9872124791145325
      ],
      "type": "VEC3"
    },
    {
      "bufferView": 0,
      "byteOffset": 38280,
      "componentType": 5125,
      "count": 1392,
      "type": "SCALAR"
    }
  ],
  "asset": {
    "extras": {
      "author": "AD Medical Animation (https://sketchfab.com/ADMedicalAnimation)",
      "license": "CC-BY-4.0 (http://creativecommons.org/licenses/by/4.0/)",
      "source": "https://sketchfab.com/3d-models/ch4-a1d0d95fb60c409ead7151f0c59935b2",
      "title": "CH4"
    },
    "generator": "Sketchfab-15.37.0",
    "version": "2.0"
  },
  "bufferViews": [
    {
      "buffer": 0,
      "byteLength": 43848,
      "name": "floatBufferViews",
      "target": 34963
    },
    {
      "buffer": 0,
      "byteLength": 2616,
      "byteOffset": 43848,
      "byteStride": 8,
      "name": "floatBufferViews",
      "target": 34962
    },
    {
      "buffer": 0,
      "byteLength": 50784,
      "byteOffset": 46464,
      "byteStride": 12,
      "name": "floatBufferViews",
      "target": 34962
    }
  ],
  "buffers": [
    {
      "byteLength": 97248,
      "uri": "scene.bin"
    }
  ],
  "materials": [
    {
      "doubleSided": true,
      "name": "material_0",
      "pbrMetallicRoughness": {
        "metallicFactor": 0.0,
        "roughnessFactor": 0.6
      }
    },
    {
      "doubleSided": true,
      "name": "Material.002",
      "pbrMetallicRoughness": {
        "baseColorFactor": [
          0.294315,
          0.294315,
          0.294315,
          1.0
        ],
        "metallicFactor": 0.0,
        "roughnessFactor": 0.5
      }
    },
    {
      "doubleSided": true,
      "name": "Material.003",
      "pbrMetallicRoughness": {
        "baseColorFactor": [
          0.0,
          0.0,
          0.0,
          1.0
        ],
        "metallicFactor": 0.0,
        "roughnessFactor": 0.5
      }
    },
    {
      "doubleSided": true,
      "name": "Material",
      "pbrMetallicRoughness": {
        "baseColorFactor": [
          0.8,
          0.8,
          0.8,
          1.0
        ],
        "metallicFactor": 0.0,
        "roughnessFactor": 0.5
      }
    },
    {
      "doubleSided": true,
      "name": "Material.001",
      "pbrMetallicRoughness": {
        "baseColorFactor": [
          0.0,
          0.0,
          0.0,
          1.0
        ],
        "metallicFactor": 0.0,
        "roughnessFactor": 0.5
      }
    }
  ],
  "meshes": [
    {
      "name": "Object_0",
      "primitives": [
        {
          "attributes": {
            "NORMAL": 1,
            "POSITION": 0
          },
          "indices": 2,
          "material": 1,
          "mode": 4
        }
      ]
    },
    {
      "name": "Object_1",
      "primitives": [
        {
          "attributes": {
            "NORMAL": 4,
            "POSITION": 3,
            "TEXCOORD_0": 5
          },
          "indices": 6,
          "material": 2,
          "mode": 4
        }
      ]
    },
    {
      "name": "Object_2",
      "primitives": [
        {
          "attributes": {
            "NORMAL": 8,
            "POSITION": 7,
            "TEXCOORD_0": 9
          },
          "indices": 10,
          "material": 2,
          "mode": 4
        }
      ]
    },
    {
      "name": "Object_3",
      "primitives": [
        {
          "attributes": {
            "NORMAL": 12,
            "POSITION": 11
          },
          "indices": 13,
          "material": 0,
          "mode": 4
        }
      ]
    },
    {
      "name": "Object_4",
      "primitives": [
        {
          "attributes": {
            "NORMAL": 15,
            "POSITION": 14,
            "TEXCOORD_0": 16
          },
          "indices": 17,
          "material": 2,
          "mode": 4
        }
      ]
    },
    {
      "name": "Object_5",
      "primitives": [
        {
          "attributes": {
            "NORMAL": 19,
            "POSITION": 18,
            "TEXCOORD_0": 20
          },
          "indices": 21,
          "material": 3,
          "mode": 4
        }
      ]
    },
    {
      "name": "Object_6",
      "primitives": [
        {
          "attributes": {
            "NORMAL": 23,
            "POSITION": 22,
            "TEXCOORD_0": 24
          },
          "indices": 25,
          "material": 2,
          "mode": 4
        }
      ]
    },
    {
      "name": "Object_7",
      "primitives": [
        {
          "attributes": {
            "NORMAL": 27,
            "POSITION": 26
          },
          "indices": 28,
          "material": 0,
          "mode": 4
        }
      ]
    },
    {
      "name": "Object_8",
      "primitives": [
        {
          "attributes": {
            "NORMAL": 30,
            "POSITION": 29
          },
          "indices": 31,
          "material": 0,
          "mode": 4
        }
      ]
    },
    {
      "name": "Object_9",
      "primitives": [
        {
          "attributes": {
            "NORMAL": 33,
            "POSITION": 32
          },
          "indices": 34,
          "material": 0,
          "mode": 4
        }
      ]
    },
    {
      "name": "Object_10",
      "primitives": [
        {
          "attributes": {
            "NORMAL": 36,
            "POSITION": 35
          },
          "indices": 37,
          "material": 4,
          "mode": 4
        }
      ]
    }
  ],
  "nodes": [
    {
      "children": [
        1
      ],
      "matrix": [
        1.0,
        0.0,
        0.0,
        0.0,
        0.0,
        2.220446049250313e-16,
        -1.0,
        0.0,
        0.0,
        1.0,
        2.220446049250313e-16,
        0.0,
        0.0,
        0.0,
        0.0,
        1.0
      ],
      "name": "Sketchfab_model"
    },
    {
      "children": [
        2
      ],
      "name": "root"
    },
    {
      "children": [
        3,
        5,
        7,
        9,
        11,
        13,
        15,
        17,
        19,
        21,
        23
      ],
      "matrix": [
        1.0,
        0.0,
        0.0,
        0.0,
        0.0,
        2.220446049250313e-16,
        1.0,
        0.0,
        0.0,
        -1.0,
        2.220446049250313e-16,
        0.0,
        0.0,
        0.0,
        0.0,
        1.0
      ],
      "name": "GLTF_SceneRootNode"
    },
    {
      "children": [
        4
      ],
      "matrix": [
        1.5970143251822035,
        -0.024349337907104085,
        -0.0008311817290207602,
        0.0,
        0.02436138682946146,
        1.5966660076437393,
        0.033354442335286935,
        0.0,
        0.00032241483578733895,
        -0.03336323927975674,
        1.5968516293852055,
        0.0,
        -2.396875061094761e-06,
        5.771472454071045,
        -4.066620022058487e-06,
        1.0
      ],
      "name": "Bonds_0"
    },
    {
      "mesh": 0,
      "name": "Object_4"
    },
    {
      "children": [
        6
      ],
      "matrix": [
        1.5970143251822035,
        -0.024349337907104085,
        -0.0008311817290207602,
        0.0,
        0.02436138682946146,
        1.5966660076437393,
        0.033354442335286935,
        0.0,
        0.00032241483578733895,
        -0.03336323927975674,
        1.5968516293852055,
        0.0,
        9.258836507797241e-05,
        5.777697563171387,
        0.00012598256580531597,
        1.0
      ],
      "name": "H_1"
    },
    {
      "mesh": 1,
      "name": "Object_6"
    },
    {
      "children": [
        8
      ],
      "matrix": [
        1.5970143251822035,
        -0.024349337907104085,
        -0.0008311817290207602,
        0.0,
        0.02436138682946146,
        1.5966660076437393,
        0.033354442335286935,
        0.0,
        0.00032241483578733895,
        -0.03336323927975674,
        1.5968516293852055,
        0.0,
        -0.023516016080975533,
        5.7718305587768555,
        8.171424269676208e-06,
        1.0
      ],
      "name": "H2_2"
    },
    {
      "mesh": 2,
      "name": "Object_8"
    },
    {
      "children": [
        10
      ],
      "matrix": [
        1.5970143251822035,
        -0.024349337907104085,
        -0.0008311817290207602,
        0.0,
        0.02436138682946146,
        1.5966660076437393,
        0.033354442335286935,
        0.0,
        0.00032241483578733895,
        -0.03336323927975674,
        1.5968516293852055,
        0.0,
        -2.396875061094761e-06,
        5.771472454071045,
        -4.066620022058487e-06,
        1.0
      ],
      "name": "Hydrogen3_3"
    },
    {
      "mesh": 3,
      "name": "Object_10"
    },
    {
      "children": [
        12
      ],
      "matrix": [
        1.5970143251822035,
        -0.024349337907104085,
        -0.0008311817290207602,
        0.0,
        0.02436138682946146,
        1.5966660076437393,
        0.033354442335286935,
        0.0,
        0.00032241483578733895,
        -0.03336323927975674,
        1.5968516293852055,
        0.0,
        0.01482617761939764,
        5.771908760070801,
        -0.03172390162944794,
        1.0
      ],
      "name": "H4_4"
    },
    {
      "mesh": 4,
      "name": "Object_12"
    },
    {
      "children": [
        14
      ],
      "matrix": [
        1.5970143251822035,
        -0.024349337907104085,
        -0.0008311817290207602,
        0.0,
        0.02436138682946146,
        1.5966660076437393,
        0.033354442335286935,
        0.0,
        0.00032241483578733895,
        -0.03336323927975674,
        1.5968516293852055,
        0.0,
        -6.252992898225784e-05,
        5.767530918121338,
        -8.639786392450333e-05,
        1.0
      ],
      "name": "C_5"
    },
    {
      "mesh": 5,
      "name": "Object_14"
    },
    {
      "children": [
        16
      ],
      "matrix": [
        1.5970143251822035,
        -0.024349337907104085,
        -0.0008311817290207602,
        0.0,
        0.02436138682946146,
        1.5966660076437393,
        0.033354442335286935,
        0.0,
        0.00032241483578733895,
        -0.03336323927975674,
        1.5968516293852055,
        0.0,
        0.028213948011398315,
        5.7710418701171875,
        -1.8751947209239006e-05,
        1.0
      ],
      "name": "H3_6"
    },
    {
      "mesh": 6,
      "name": "Object_16"
    },
    {
      "children": [
        18
      ],
      "matrix": [
        1.5970143251822035,
        -0.024349337907104085,
        -0.0008311817290207602,
        0.0,
        0.02436138682946146,
        1.5966660076437393,
        0.033354442335286935,
        0.0,
        0.00032241483578733895,
        -0.03336323927975674,
        1.5968516293852055,
        0.0,
        -2.396875061094761e-06,
        5.771472454071045,
        -4.066620022058487e-06,
        1.0
      ],
      "name": "Hydrogen2_7"
    },
    {
      "mesh": 7,
      "name": "Object_18"
    },
    {
      "children": [
        20
      ],
      "matrix": [
        1.5970143251822035,
        -0.024349337907104085,
        -0.0008311817290207602,
        0.0,
        0.02436138682946146,
        1.5966660076437393,
        0.033354442335286935,
        0.0,
        0.00032241483578733895,
        -0.03336323927975674,
        1.5968516293852055,
        0.0,
        -2.396875061094761e-06,
        5.771472454071045,
        -4.066620022058487e-06,
        1.0
      ],
      "name": "Hydrogen4_8"
    },
    {
      "mesh": 8,
      "name": "Object_20"
    },
    {
      "children": [
        22
      ],
      "matrix": [
        1.5970143251822035,
        -0.024349337907104085,
        -0.0008311817290207602,
        0.0,
        0.02436138682946146,
        1.5966660076437393,
        0.033354442335286935,
        0.0,
        0.00032241483578733895,
        -0.03336323927975674,
        1.5968516293852055,
        0.0,
        -2.396875061094761e-06,
        5.771472454071045,
        -4.066620022058487e-06,
        1.0
      ],
      "name": "Hydrogen_9"
    },
    {
      "mesh": 9,
      "name": "Object_22"
    },
    {
      "children": [
        24
      ],
      "matrix": [
        1.5970143251822035,
        -0.024349337907104085,
        -0.0008311817290207602,
        0.0,
        0.02436138682946146,
        1.5966660076437393,
        0.033354442335286935,
        0.0,
        0.00032241483578733895,
        -0.03336323927975674,
        1.5968516293852055,
        0.0,
        -2.396875061094761e-06,
        5.771472454071045,
        -4.066620022058487e-06,
        1.0
      ],
      "name": "Carbon_10"
    },
    {
      "mesh": 10,
      "name": "Object_24"
    }
  ],
  "scene": 0,
  "scenes": [
    {
      "name": "Sketchfab_Scene",
      "nodes": [
        0
      ]
    }
  ]
}
